<svg width="30" height="30" viewBox="0 0 30 30" fill="none" xmlns="http://www.w3.org/2000/svg">
<path d="M12.8407 0.139113C10.1915 0.520161 7.62702 1.59677 5.4496 3.39315L10.131 8.0746C11.8125 5.90927 12.75 3.16331 12.8407 0.139113ZM15 12.9435L24.5504 3.39315C21.9859 1.27621 18.8891 0.157258 15.75 0C15.6774 3.86492 14.4496 7.39718 12.1996 10.1431L15 12.9435ZM3.39315 5.4496C1.59677 7.62702 0.520161 10.1915 0.139113 12.8407C3.16331 12.75 5.91532 11.8125 8.0746 10.131L3.39315 5.4496ZM19.8569 17.8004C22.5968 15.5565 26.129 14.3286 30 14.25C29.8427 11.1109 28.7238 8.01411 26.6069 5.4496L17.0565 15L19.8569 17.8004ZM15 17.0565L5.4496 26.6069C8.01411 28.7177 11.1109 29.8427 14.25 30C14.3286 26.129 15.5565 22.5968 17.8004 19.8569L15 17.0565ZM26.6069 24.5504C28.4032 22.373 29.4798 19.8085 29.8609 17.1593C26.8306 17.256 24.0847 18.1935 21.9254 19.869L26.6069 24.5504ZM10.1431 12.1996C7.39718 14.4496 3.86492 15.6835 0 15.75C0.157258 18.8891 1.27621 21.9859 3.39315 24.5504L12.9435 15L10.1431 12.1996ZM17.1593 29.8609C19.8085 29.4798 22.373 28.4032 24.5504 26.6069L19.869 21.9254C18.1935 24.0847 17.256 26.8367 17.1593 29.8609Z" fill="white"/>
</svg>
