<svg width="30" height="30" viewBox="0 0 30 30" fill="none" xmlns="http://www.w3.org/2000/svg">
<path d="M21.9223 25.1022C21.2854 25.1022 20.7686 24.5537 20.7686 23.8778V12.2456C20.7686 11.5697 21.2854 11.0211 21.9223 11.0211C22.5592 11.0211 23.0761 11.5697 23.0761 12.2456V23.8778C23.0761 24.5537 22.5592 25.1022 21.9223 25.1022Z" fill="white"/>
<path d="M21.9222 30C20.0133 30 18.4609 28.3525 18.4609 26.3267C18.4609 24.3008 20.0133 22.6533 21.9222 22.6533C23.8312 22.6533 25.3835 24.3008 25.3835 26.3267C25.3835 28.3525 23.8312 30 21.9222 30ZM21.9222 25.1022C21.2969 25.1022 20.7685 25.663 20.7685 26.3267C20.7685 26.9903 21.2969 27.5511 21.9222 27.5511C22.5476 27.5511 23.076 26.9903 23.076 26.3267C23.076 25.663 22.5476 25.1022 21.9222 25.1022Z" fill="white"/>
<path d="M11.9029 22.8468C11.7298 22.8468 11.5539 22.8058 11.3877 22.7176L4.79798 19.2212C4.22802 18.9188 3.99669 18.1835 4.28167 17.578C4.56665 16.9744 5.25891 16.7276 5.83003 17.0301L12.4198 20.5265C12.9897 20.8289 13.2211 21.5642 12.9361 22.1697C12.7336 22.5989 12.3263 22.8468 11.9029 22.8468Z" fill="white"/>
<path d="M14.9997 23.6182C13.7594 23.6182 12.5185 23.3182 11.3878 22.7176C10.8179 22.4152 10.5865 21.6799 10.8715 21.0744C11.1565 20.4701 11.8476 20.2234 12.4199 20.5265C14.0357 21.3836 15.9637 21.3836 17.5789 20.5265C18.1501 20.2234 18.8423 20.4695 19.1273 21.0744C19.4123 21.6793 19.1815 22.4146 18.611 22.7176C17.4809 23.3182 16.24 23.6182 14.9997 23.6182Z" fill="white"/>
<path d="M15.001 17.1433C14.5776 17.1433 14.1703 16.896 13.9678 16.4668C13.6828 15.8619 13.9136 15.1266 14.4841 14.8236L28.3293 7.47689C28.9005 7.17445 29.5921 7.41995 29.8777 8.02483C30.1627 8.62971 29.9319 9.36499 29.3614 9.66804L15.5162 17.0147C15.35 17.1023 15.1741 17.1433 15.001 17.1433Z" fill="white"/>
<path d="M28.8439 9.79663C28.6709 9.79663 28.4949 9.75561 28.3288 9.66745L14.4835 2.32078C13.9136 2.01834 13.6822 1.28306 13.9672 0.677573C14.2522 0.0733092 14.9433 -0.173416 15.5156 0.129634L29.3608 7.47631C29.9308 7.77875 30.1621 8.51403 29.8771 9.11951C29.6746 9.5493 29.2674 9.79663 28.8439 9.79663Z" fill="white"/>
<path d="M21.9213 13.47C21.7483 13.47 21.5723 13.4289 21.4062 13.3408L14.4835 9.66744C13.9136 9.365 13.6822 8.62972 13.9672 8.02423C14.2522 7.41997 14.9433 7.17385 15.5156 7.47629L22.4382 11.1496C23.0082 11.4521 23.2395 12.1874 22.9545 12.7928C22.752 13.2226 22.3448 13.47 21.9213 13.47Z" fill="white"/>
<path d="M5.31335 19.3504C5.13971 19.3504 4.96434 19.3093 4.7982 19.2212C3.61847 18.5949 2.88525 17.3355 2.88525 15.936C2.88525 15.2601 3.40214 14.7115 4.03902 14.7115C4.6759 14.7115 5.19279 15.2601 5.19279 15.936C5.19279 16.4025 5.43738 16.8219 5.83024 17.0306C6.40078 17.3343 6.63153 18.0696 6.34655 18.6739C6.14407 19.103 5.73621 19.3504 5.31335 19.3504Z" fill="white"/>
<path d="M4.03902 17.1604C3.40214 17.1604 2.88525 16.6119 2.88525 15.936V10.1027C2.88525 9.42685 3.40214 8.8783 4.03902 8.8783C4.6759 8.8783 5.19279 9.42685 5.19279 10.1027V15.936C5.19279 16.6125 4.6759 17.1604 4.03902 17.1604Z" fill="white"/>
<path d="M24.6866 19.3504C24.2637 19.3504 23.8558 19.103 23.6534 18.6739C23.3684 18.0696 23.5991 17.3343 24.1697 17.0306C24.5625 16.8225 24.8071 16.4025 24.8071 15.936C24.8071 15.2601 25.324 14.7115 25.9609 14.7115C26.5978 14.7115 27.1147 15.2601 27.1147 15.936C27.1147 17.3355 26.3815 18.5949 25.2017 19.2212C25.0356 19.3093 24.8602 19.3504 24.6866 19.3504Z" fill="white"/>
<path d="M25.9604 17.1604C25.3235 17.1604 24.8066 16.6119 24.8066 15.936V10.1027C24.8066 9.42685 25.3235 8.8783 25.9604 8.8783C26.5973 8.8783 27.1142 9.42685 27.1142 10.1027V15.936C27.1142 16.6125 26.5973 17.1604 25.9604 17.1604Z" fill="white"/>
<path d="M18.0967 22.8468C17.6733 22.8468 17.266 22.5995 17.0635 22.1703C16.7785 21.5654 17.0093 20.8301 17.5798 20.5271L24.1696 17.0307C24.7407 16.7282 25.4329 16.9737 25.7179 17.5786C26.0029 18.1835 25.7721 18.9188 25.2016 19.2218L18.6119 22.7182C18.4463 22.8058 18.2698 22.8468 18.0967 22.8468Z" fill="white"/>
<path d="M1.1558 9.79662C0.732361 9.79662 0.325081 9.54928 0.122594 9.12011C-0.162387 8.51524 0.0683666 7.77996 0.638906 7.47691L14.4841 0.130232C15.0553 -0.172818 15.7475 0.0732955 16.0325 0.678172C16.3175 1.28305 16.0867 2.01833 15.5162 2.32138L1.67095 9.66805C1.50481 9.7556 1.32886 9.79662 1.1558 9.79662Z" fill="white"/>
<path d="M14.9987 17.1433C14.8256 17.1433 14.6497 17.1023 14.4835 17.0141L0.638313 9.66744C0.0683515 9.365 -0.162979 8.62972 0.122002 8.02423C0.406982 7.41996 1.09809 7.17385 1.67036 7.47629L15.5156 14.823C16.0855 15.1254 16.3169 15.8607 16.0319 16.4662C15.8294 16.896 15.4221 17.1433 14.9987 17.1433Z" fill="white"/>
</svg>
