<svg width="30" height="30" viewBox="0 0 30 30" fill="none" xmlns="http://www.w3.org/2000/svg">
<path d="M18.7615 14.1856L15.8496 20.8415C15.498 21.6517 14.4785 21.6249 14.1563 20.8013L10.8225 12.3442L9.0648 17.1452H3.55145L14.2442 29.6334C14.6602 30.1222 15.334 30.1222 15.75 29.6334L26.4486 17.1452H20.0563L18.7615 14.1856ZM27.7551 2.809L27.6145 2.64159C24.5971 -0.880531 19.6579 -0.880531 16.6347 2.64159L15 4.55666L13.3653 2.64829C10.3479 -0.880532 5.4029 -0.880532 2.3855 2.64829L2.24488 2.809C-0.608469 6.14363 -0.731509 11.4536 1.81717 15.0025H7.81682L9.92022 9.23051C10.2366 8.36672 11.3029 8.34663 11.6428 9.20373L15.0527 17.8617L17.9237 11.3063C18.2693 10.5162 19.2537 10.5162 19.5993 11.3063L21.2164 15.0025H28.1828C30.7315 11.4536 30.6085 6.14363 27.7551 2.809Z" fill="white"/>
</svg>
