<svg width="416" height="367" viewBox="0 0 416 367" fill="none" xmlns="http://www.w3.org/2000/svg">
<path d="M336 141.712C332.487 110.435 317.573 81.5485 294.108 60.5722C270.644 39.5959 240.274 28 208.8 28C177.326 28 146.956 39.5959 123.492 60.5722C100.027 81.5485 85.1134 110.435 81.6 141.712C59.0205 144.836 38.3294 156.011 23.3357 173.18C8.34196 190.349 0.0548907 212.357 0 235.152V238.352C0.0423052 263.375 10.0016 287.361 27.6958 305.056C45.3901 322.75 69.3766 332.709 94.4 332.752H321.6C346.623 332.709 370.61 322.75 388.304 305.056C405.998 287.361 415.958 263.375 416 238.352V235.152C416.002 212.595 407.94 190.78 393.27 173.646C378.6 156.511 358.288 145.185 336 141.712ZM384.8 237.712C384.864 246.021 383.272 254.261 380.117 261.949C376.961 269.637 372.306 276.619 366.422 282.487C360.539 288.356 353.545 292.994 345.849 296.13C338.153 299.266 329.91 300.837 321.6 300.752H94.4C77.8635 300.709 62.0163 294.121 50.3232 282.428C38.6301 270.735 32.0422 254.888 32 238.352V235.152C32.0422 218.615 38.6301 202.768 50.3232 191.075C62.0163 179.382 77.8635 172.794 94.4 172.752H96C100.243 172.752 104.313 171.066 107.314 168.065C110.314 165.065 112 160.995 112 156.752C112 131.291 122.114 106.873 140.118 88.8693C158.121 70.8658 182.539 60.7515 208 60.7515C233.461 60.7515 257.879 70.8658 275.882 88.8693C293.886 106.873 304 131.291 304 156.752C304 160.995 305.686 165.065 308.686 168.065C311.687 171.066 315.757 172.752 320 172.752H321.6C338.137 172.794 353.984 179.382 365.677 191.075C377.37 202.768 383.958 218.615 384 235.152L384.8 237.712Z" fill="#E03E40"/>
<rect width="40" height="445.464" rx="20" transform="matrix(0.766044 0.642788 0.642788 -0.766044 28.8106 341.245)" fill="#E03E40"/>
</svg>
