<svg width="600" height="600" viewBox="0 0 600 600" fill="none" xmlns="http://www.w3.org/2000/svg">
<circle cx="300" cy="300" r="290" stroke="#F03E3E" stroke-width="20"/>
<rect x="83.8571" y="494.407" width="586.876" height="20" transform="rotate(-45 83.8571 494.407)" fill="#F03E3E"/>
<path d="M441.531 254.54C437.749 254.543 433.973 254.771 430.219 255.222C420.027 222.034 389.411 199.353 354.695 199.282C346.053 199.273 337.472 200.709 329.306 203.522C309.089 159.805 261.176 136.047 214.144 146.415C167.106 156.786 133.627 198.483 133.661 246.645C133.664 254.969 134.702 263.259 136.737 271.324C91.9241 278.166 59.9064 318.328 63.2379 363.539C66.5632 408.753 104.117 443.799 149.448 444H441.531C493.85 444 536.26 401.587 536.26 349.268C536.26 296.95 493.85 254.54 441.531 254.54V254.54ZM441.531 428.21H149.448C110.53 428.38 78.728 397.184 78.1476 358.269C77.5702 319.353 108.424 287.228 147.333 286.236C149.859 286.165 152.196 284.89 153.622 282.806C155.055 280.719 155.398 278.079 154.549 275.699C138.879 230.859 162.187 181.754 206.836 165.542C251.482 149.329 300.867 172.044 317.616 216.492C318.382 218.555 319.969 220.2 322.001 221.04C324.035 221.88 326.323 221.834 328.318 220.914C336.583 217.07 345.583 215.078 354.695 215.069C384.73 215.124 410.594 236.28 416.593 265.711C417.452 269.99 421.62 272.756 425.893 271.892C431.04 270.861 436.276 270.336 441.531 270.33C485.13 270.33 520.473 305.676 520.473 349.268C520.473 392.867 485.13 428.21 441.531 428.21V428.21Z" fill="#F03E3E"/>
</svg>
